<?xml version="1.0" encoding="utf-8"?>
<svg xmlns="http://www.w3.org/2000/svg" xmlns:xlink="http://www.w3.org/1999/xlink" style="margin: auto; background: none; display: block; z-index: 1; position: relative; shape-rendering: auto;" width="850" height="478" preserveAspectRatio="xMidYMid" viewBox="0 0 850 478">
<g transform="translate(425,239) scale(1,1) translate(-425,-239)"><g transform="translate(660.0711161817679,56.66015153823952) scale(100)" opacity="0.63">
  <path d="M2.811375 0 C2.811375 0.6842499999999999 3.0602539829529336 0.9767346174604975 2.718128982952934 1.5693124999999997 S1.9982653825395023 2.092597169564476 1.4056875000000002 2.434722169564476 S0.6842500000000001 3.1386249999999998 1.9218535299869306e-16 3.1386249999999998 S-0.8131096174604971 2.7768471695644763 -1.4056874999999993 2.4347221695644765 S-2.3760039829529327 2.161890382539503 -2.718128982952933 1.569312500000001 S-2.811375 0.6842500000000002 -2.811375 3.4429413949528902e-16 S-3.060253982952934 -0.9767346174604968 -2.7181289829529343 -1.569312499999999 S-1.9982653825395031 -2.092597169564475 -1.4056875000000013 -2.434722169564475 S-0.6842500000000005 -3.1386249999999998 -5.765560589960791e-16 -3.1386249999999998 S0.8131096174604958 -2.7768471695644767 1.4056874999999982 -2.4347221695644774 S2.3760039829529322 -2.161890382539503 2.7181289829529325 -1.5693125000000012 S2.811375 -0.6842500000000006 2.811375 -6.8858827899057805e-16" fill="#f2c2c2" stroke-width="0">
    <animateTransform attributeName="transform" type="rotate" dur="10s" repeatCount="indefinite" values="0;60"></animateTransform>
  </path>
</g><g transform="translate(707.0853394181215,20.192181845887433) scale(100)" opacity="0.63">
  <path d="M3.3736499999999996 0 C3.3736499999999996 0.8210999999999999 3.67230477954352 1.1720815409525969 3.26175477954352 1.8831749999999996 S2.3979184590474025 2.5111166034773706 1.6868250000000002 2.921666603477371 S0.8211000000000002 3.7663499999999996 2.3062242359843166e-16 3.7663499999999996 S-0.9757315409525965 3.332216603477371 -1.6868249999999991 2.9216666034773713 S-2.8512047795435196 2.5942684590474037 -3.2617547795435198 1.8831750000000012 S-3.3736499999999996 0.8211000000000004 -3.3736499999999996 4.1315296739434675e-16 S-3.6723047795435204 -1.172081540952596 -3.2617547795435207 -1.8831749999999987 S-2.3979184590474034 -2.5111166034773698 -1.6868250000000014 -2.92166660347737 S-0.8211000000000006 -3.7663499999999996 -6.91867270795295e-16 -3.7663499999999996 S0.9757315409525947 -3.332216603477372 1.6868249999999976 -2.9216666034773726 S2.851204779543519 -2.594268459047404 3.2617547795435193 -1.8831750000000016 S3.3736499999999996 -0.8211000000000007 3.3736499999999996 -8.263059347886935e-16" fill="#f3a6b0" stroke-width="0">
    <animateTransform attributeName="transform" type="rotate" dur="5s" repeatCount="indefinite" values="0;60"></animateTransform>
  </path>
</g><g transform="translate(819.9194751853701,-67.33094541575758) scale(100)" opacity="0.63">
  <path d="M4.723109999999999 0 C4.723109999999999 1.1495399999999998 5.141226691360928 1.6409141573336359 4.566456691360928 2.6364449999999993 S3.3570858426663635 3.5155632448683187 2.361555 4.090333244868319 S1.14954 5.272889999999999 3.2287139303780435e-16 5.272889999999999 S-1.3660241573336354 4.66510324486832 -2.3615549999999987 4.09033324486832 S-3.9916866913609272 3.631975842666365 -4.566456691360927 2.6364450000000015 S-4.723109999999999 1.1495400000000005 -4.723109999999999 5.784141543520855e-16 S-5.141226691360929 -1.6409141573336348 -4.566456691360929 -2.6364449999999984 S-3.357085842666365 -3.5155632448683174 -2.361555000000002 -4.090333244868318 S-1.1495400000000007 -5.272889999999999 -9.686141791134128e-16 -5.272889999999999 S1.3660241573336327 -4.6651032448683205 2.3615549999999965 -4.090333244868321 S3.991686691360926 -3.631975842666365 4.566456691360926 -2.636445000000002 S4.723109999999999 -1.149540000000001 4.723109999999999 -1.156828308704171e-15" fill="#f288a4" stroke-width="0">
    <animateTransform attributeName="transform" type="rotate" dur="3.3333333333333335s" repeatCount="indefinite" values="0;60"></animateTransform>
  </path>
</g></g>
</svg>