<svg id="visual" viewBox="0 0 3200 2800" width="3200" height="2800" xmlns="http://www.w3.org/2000/svg" xmlns:xlink="http://www.w3.org/1999/xlink" version="1.1"><rect x="0" y="0" width="3200" height="2800" fill="#fff"></rect><path d="M0 904L76.2 893C152.3 882 304.7 860 457 845.3C609.3 830.7 761.7 823.3 914 822C1066.3 820.7 1218.7 825.3 1371.2 863.7C1523.7 902 1676.3 974 1828.8 1004.3C1981.3 1034.7 2133.7 1023.3 2286 975.7C2438.3 928 2590.7 844 2743 811.2C2895.3 778.3 3047.7 796.7 3123.8 805.8L3200 815L3200 0L3123.8 0C3047.7 0 2895.3 0 2743 0C2590.7 0 2438.3 0 2286 0C2133.7 0 1981.3 0 1828.8 0C1676.3 0 1523.7 0 1371.2 0C1218.7 0 1066.3 0 914 0C761.7 0 609.3 0 457 0C304.7 0 152.3 0 76.2 0L0 0Z" fill="#ffcbcb"></path><path d="M0 652L76.2 675.3C152.3 698.7 304.7 745.3 457 734.3C609.3 723.3 761.7 654.7 914 673C1066.3 691.3 1218.7 796.7 1371.2 793C1523.7 789.3 1676.3 676.7 1828.8 644.5C1981.3 612.3 2133.7 660.7 2286 660.8C2438.3 661 2590.7 613 2743 622C2895.3 631 3047.7 697 3123.8 730L3200 763L3200 0L3123.8 0C3047.7 0 2895.3 0 2743 0C2590.7 0 2438.3 0 2286 0C2133.7 0 1981.3 0 1828.8 0C1676.3 0 1523.7 0 1371.2 0C1218.7 0 1066.3 0 914 0C761.7 0 609.3 0 457 0C304.7 0 152.3 0 76.2 0L0 0Z" fill="#f4a6ac"></path><path d="M0 583L76.2 588.2C152.3 593.3 304.7 603.7 457 587.8C609.3 572 761.7 530 914 553.2C1066.3 576.3 1218.7 664.7 1371.2 668.3C1523.7 672 1676.3 591 1828.8 556C1981.3 521 2133.7 532 2286 557.5C2438.3 583 2590.7 623 2743 655.7C2895.3 688.3 3047.7 713.7 3123.8 726.3L3200 739L3200 0L3123.8 0C3047.7 0 2895.3 0 2743 0C2590.7 0 2438.3 0 2286 0C2133.7 0 1981.3 0 1828.8 0C1676.3 0 1523.7 0 1371.2 0C1218.7 0 1066.3 0 914 0C761.7 0 609.3 0 457 0C304.7 0 152.3 0 76.2 0L0 0Z" fill="#e78091"></path><path d="M0 408L76.2 419.5C152.3 431 304.7 454 457 445.5C609.3 437 761.7 397 914 377C1066.3 357 1218.7 357 1371.2 368.3C1523.7 379.7 1676.3 402.3 1828.8 422.2C1981.3 442 2133.7 459 2286 472C2438.3 485 2590.7 494 2743 462C2895.3 430 3047.7 357 3123.8 320.5L3200 284L3200 0L3123.8 0C3047.7 0 2895.3 0 2743 0C2590.7 0 2438.3 0 2286 0C2133.7 0 1981.3 0 1828.8 0C1676.3 0 1523.7 0 1371.2 0C1218.7 0 1066.3 0 914 0C761.7 0 609.3 0 457 0C304.7 0 152.3 0 76.2 0L0 0Z" fill="#d8577b"></path><path d="M0 184L76.2 206.2C152.3 228.3 304.7 272.7 457 276.8C609.3 281 761.7 245 914 239C1066.3 233 1218.7 257 1371.2 267.2C1523.7 277.3 1676.3 273.7 1828.8 260.2C1981.3 246.7 2133.7 223.3 2286 227C2438.3 230.7 2590.7 261.3 2743 281.5C2895.3 301.7 3047.7 311.3 3123.8 316.2L3200 321L3200 0L3123.8 0C3047.7 0 2895.3 0 2743 0C2590.7 0 2438.3 0 2286 0C2133.7 0 1981.3 0 1828.8 0C1676.3 0 1523.7 0 1371.2 0C1218.7 0 1066.3 0 914 0C761.7 0 609.3 0 457 0C304.7 0 152.3 0 76.2 0L0 0Z" fill="#c62368"></path></svg>